HIERARCHY
ROOT SpineBase
{
  OFFSET 0.000000 0.000000 0.000000
  CHANNELS 6 Xposition Yposition Zposition Zrotation Xrotation Yrotation
  JOINT SpineMid
  {
    OFFSET -0.000000 29.649863 0.000000
    CHANNELS 3 Zrotation Xrotation Yrotation
    JOINT SpineShoulder
    {
      OFFSET 0.062848 22.091386 -0.822256
      CHANNELS 3 Zrotation Xrotation Yrotation
      JOINT Neck
      {
        OFFSET 0.053613 7.334500 -0.594131
        CHANNELS 3 Zrotation Xrotation Yrotation
        JOINT Head
        {
          OFFSET -3.509098 13.721179 -0.550207
          CHANNELS 3 Zrotation Xrotation Yrotation
          End Site
          {
            OFFSET 0 0 0
          }
        }
      }
      JOINT ShoulderLeft
      {
        OFFSET -15.934401 -3.658922 3.743315
        CHANNELS 3 Zrotation Xrotation Yrotation
        JOINT ElbowLeft
        {
          OFFSET -2.266672 -26.676275 1.721354
          CHANNELS 3 Zrotation Xrotation Yrotation
          JOINT WristLeft
          {
            OFFSET 1.559707 -20.533306 -8.477318
            CHANNELS 3 Zrotation Xrotation Yrotation
            JOINT HandLeft
            {
              OFFSET 0.892128 -0.843826 -0.789584
              CHANNELS 3 Zrotation Xrotation Yrotation
              JOINT HandTipLeft
              {
                OFFSET 0.440492 -6.857729 -2.116600
                CHANNELS 3 Zrotation Xrotation Yrotation
                End Site
                {
                  OFFSET 0 0 0
                }
              }
              JOINT ThumbLeft
              {
                OFFSET 4.479321 -0.127096 -1.525578
                CHANNELS 3 Zrotation Xrotation Yrotation
                End Site
                {
                  OFFSET 0 0 0
                }
              }
            }
          }
        }
      }
      JOINT ShoulderRight
      {
        OFFSET 15.087584 -2.368492 -5.922839
        CHANNELS 3 Zrotation Xrotation Yrotation
        JOINT ElbowRight
        {
          OFFSET 7.647007 -25.485790 1.965712
          CHANNELS 3 Zrotation Xrotation Yrotation
          JOINT WristRight
          {
            OFFSET -0.633549 -22.093656 -5.464833
            CHANNELS 3 Zrotation Xrotation Yrotation
            JOINT HandRight
            {
              OFFSET -3.651199 -5.589660 -2.276800
              CHANNELS 3 Zrotation Xrotation Yrotation
              JOINT HandTipRight
              {
                OFFSET -1.888460 -5.176880 1.222050
                CHANNELS 3 Zrotation Xrotation Yrotation
                End Site
                {
                  OFFSET 0 0 0
                }
              }
              JOINT ThumbRight
              {
                OFFSET 2.107523 -1.231599 0.418552
                CHANNELS 3 Zrotation Xrotation Yrotation
                End Site
                {
                  OFFSET 0 0 0
                }
              }
            }
          }
        }
      }
    }
  }
  JOINT HipLeft
  {
    OFFSET -6.641867 0.282071 -1.555518
    CHANNELS 3 Zrotation Xrotation Yrotation
    JOINT KneeLeft
    {
      OFFSET 4.265842 -27.759083 4.952096
      CHANNELS 3 Zrotation Xrotation Yrotation
      JOINT AnkleLeft
      {
        OFFSET 4.674458 -32.869516 5.014144
        CHANNELS 3 Zrotation Xrotation Yrotation
        JOINT FootLeft
        {
          OFFSET -2.591249 -3.172747 -13.081599
          CHANNELS 3 Zrotation Xrotation Yrotation
          End Site
          {
            OFFSET 0 0 0
          }
        }
      }
    }
  }
  JOINT HipRight
  {
    OFFSET 7.358550 1.700240 -5.167132
    CHANNELS 3 Zrotation Xrotation Yrotation
    JOINT KneeRight
    {
      OFFSET 7.300027 -28.124150 1.974162
      CHANNELS 3 Zrotation Xrotation Yrotation
      JOINT AnkleRight
      {
        OFFSET 2.038698 -32.760863 5.452505
        CHANNELS 3 Zrotation Xrotation Yrotation
        JOINT FootRight
        {
          OFFSET -1.836225 -6.340800 -7.364981
          CHANNELS 3 Zrotation Xrotation Yrotation
          End Site
          {
            OFFSET 0 0 0
          }
        }
      }
    }
  }
}
MOTION
Frames: 5
Frame Time: 0.033333
-35.317466 69.947605 337.219756 -1.541533 -3.363705 24.116117 0.034766 0.231312 -24.207266 0.029269 0.071155 -0.053966 1.569360 3.070144 0.062770 0.000000 0.000000 0.000000 -0.948123 -6.396398 0.627696 10.477413 46.797195 -4.106631 -96.724012 -52.631154 -138.654908 -6.590067 66.691615 51.319202 0.000000 0.000000 0.000000 0.000000 0.000000 0.000000 0.079816 10.627125 2.419127 -46.699143 -0.534596 6.537691 -55.304317 -49.775939 -1.331145 111.173999 46.599262 -95.181995 0.000000 0.000000 0.000000 0.000000 0.000000 0.000000 -5.802950 35.098809 -20.759119 37.806406 -43.899974 12.951946 -3.673396 0.161105 -41.767483 0.000000 0.000000 0.000000 -0.943015 6.798087 -23.639644 6.205161 -5.541261 -0.110798 -14.764203 27.825244 9.512100 0.000000 0.000000 0.000000
-35.075097 71.592445 337.152516 -0.937729 -3.235349 24.440306 0.084351 0.232031 -24.491464 0.051902 0.082932 -0.025537 0.902286 2.907142 0.029002 0.000000 0.000000 0.000000 -1.671537 -6.534050 0.580284 7.995397 43.489587 -2.294279 -93.154943 -49.738154 -130.372766 -16.381404 66.886171 62.460585 0.000000 0.000000 0.000000 0.000000 0.000000 0.000000 -3.226821 12.829643 3.322094 -52.687097 -0.072913 6.853743 -71.805753 -57.865695 -20.830682 156.752236 48.989117 -135.554048 0.000000 0.000000 0.000000 0.000000 0.000000 0.000000 -4.737388 34.138324 -21.453825 35.753677 -43.439815 12.063091 -5.564033 -13.981342 -34.840387 0.000000 0.000000 0.000000 -1.357393 6.991021 -23.901138 6.080370 -5.673404 -0.146329 -11.777741 23.381021 7.241521 0.000000 0.000000 0.000000
-34.663146 74.940438 337.302242 0.192037 -3.243039 23.570507 0.071930 0.251624 -23.550355 0.021020 0.082333 0.020573 0.570343 2.531683 -0.130854 0.000000 0.000000 0.000000 -2.270527 -5.461163 0.495443 6.589788 44.406735 -1.381138 -95.141736 -49.758446 -137.671062 -49.280719 60.262379 95.084664 0.000000 0.000000 0.000000 0.000000 0.000000 0.000000 -4.665777 14.001702 3.698058 -60.533335 0.123266 7.569237 -76.570753 -55.352861 -27.766868 169.662210 56.939014 -151.189920 0.000000 0.000000 0.000000 0.000000 0.000000 0.000000 -5.087702 31.441367 -20.896379 30.767820 -39.749202 9.185841 -2.350402 -24.659680 -11.634896 0.000000 0.000000 0.000000 -1.900204 9.239010 -22.461005 6.490216 -7.375949 -0.418692 -8.839469 16.037302 5.232080 0.000000 0.000000 0.000000
-34.668215 76.993214 337.399839 0.836105 -3.116026 22.535630 0.098172 0.270827 -22.476238 0.006931 0.084763 0.047667 0.640659 3.087560 0.004698 0.000000 0.000000 0.000000 -3.377850 -5.874836 0.429009 9.756934 45.303960 -3.444238 -96.429958 -52.106577 -140.540751 -66.745057 53.300340 109.322382 0.000000 0.000000 0.000000 0.000000 0.000000 0.000000 -3.751042 13.282601 3.336018 -65.761848 0.120800 8.698106 -76.476499 -55.952930 -31.363135 173.825293 54.619016 -154.010749 0.000000 0.000000 0.000000 0.000000 0.000000 0.000000 -4.760380 28.058887 -20.259760 25.719260 -35.023147 6.620565 1.257054 -28.586231 5.094661 0.000000 0.000000 0.000000 -1.454764 12.685053 -20.512608 8.318865 -13.761049 -0.577067 -8.437689 15.166494 3.655082 0.000000 0.000000 0.000000
-34.983263 77.687615 337.392865 1.178228 -2.691407 21.058685 0.113501 0.280150 -20.983722 -0.000240 0.087727 0.060764 0.889575 3.319966 0.152235 0.000000 0.000000 0.000000 -3.537890 -7.084653 0.456780 9.184366 42.633583 -3.388139 -89.474237 -54.562780 -133.060219 -56.854264 53.561369 99.405427 0.000000 0.000000 0.000000 0.000000 0.000000 0.000000 -1.509672 10.459042 2.388141 -67.855611 1.493140 11.525983 -80.419048 -59.051597 -38.637074 171.692689 53.311595 -155.565566 0.000000 0.000000 0.000000 0.000000 0.000000 0.000000 -3.141764 21.471636 -19.499998 18.702700 -27.326060 3.643432 -0.330820 -21.418788 15.332225 0.000000 0.000000 0.000000 -0.297124 17.543718 -17.768828 11.212065 -23.850018 -0.091745 -10.406433 17.703090 2.997266 0.000000 0.000000 0.000000
